<svg width="124" height="124" viewBox="0 0 124 124" fill="none" xmlns="http://www.w3.org/2000/svg">
<path d="M56.8333 77.5H67.1666V87.8333H56.8333V77.5ZM56.8333 36.1667H67.1666V67.1667H56.8333V36.1667ZM61.9483 10.3333C33.4283 10.3333 10.3333 33.48 10.3333 62C10.3333 90.52 33.4283 113.667 61.9483 113.667C90.5199 113.667 113.667 90.52 113.667 62C113.667 33.48 90.5199 10.3333 61.9483 10.3333ZM61.9999 103.333C39.1633 103.333 20.6666 84.8367 20.6666 62C20.6666 39.1633 39.1633 20.6667 61.9999 20.6667C84.8366 20.6667 103.333 39.1633 103.333 62C103.333 84.8367 84.8366 103.333 61.9999 103.333Z" fill="#5B9795"/>
</svg>
